<?xml version="1.0" encoding="UTF-8" standalone="no"?>
<!-- Created with Inkscape (http://www.inkscape.org/) -->

<svg
   xmlns:dc="http://purl.org/dc/elements/1.1/"
   xmlns:cc="http://creativecommons.org/ns#"
   xmlns:rdf="http://www.w3.org/1999/02/22-rdf-syntax-ns#"
   xmlns:svg="http://www.w3.org/2000/svg"
   xmlns="http://www.w3.org/2000/svg"
   xmlns:sodipodi="http://sodipodi.sourceforge.net/DTD/sodipodi-0.dtd"
   xmlns:inkscape="http://www.inkscape.org/namespaces/inkscape"
   width="11.030706mm"
   height="13.320704mm"
   viewBox="0 0 11.030706 13.320705"
   version="1.1"
   id="svg7147"
   inkscape:version="0.92.4 (5da689c313, 2019-01-14)"
   sodipodi:docname="documents.svg">
  <defs
     id="defs7141" />
  <sodipodi:namedview
     id="base"
     pagecolor="#ffffff"
     bordercolor="#666666"
     borderopacity="1.0"
     inkscape:pageopacity="0.0"
     inkscape:pageshadow="2"
     inkscape:zoom="5.6"
     inkscape:cx="-2.2874735"
     inkscape:cy="49.701246"
     inkscape:document-units="mm"
     inkscape:current-layer="layer1"
     showgrid="false"
     inkscape:showpageshadow="false"
     showborder="false"
     fit-margin-top="0"
     fit-margin-left="0"
     fit-margin-right="0"
     fit-margin-bottom="0"
     inkscape:window-width="3440"
     inkscape:window-height="1377"
     inkscape:window-x="-8"
     inkscape:window-y="-8"
     inkscape:window-maximized="1" />
  <metadata
     id="metadata7144">
    <rdf:RDF>
      <cc:Work
         rdf:about="">
        <dc:format>image/svg+xml</dc:format>
        <dc:type
           rdf:resource="http://purl.org/dc/dcmitype/StillImage" />
        <dc:title></dc:title>
      </cc:Work>
    </rdf:RDF>
  </metadata>
  <g
     inkscape:label="Capa 1"
     inkscape:groupmode="layer"
     id="layer1"
     transform="translate(-102.69429,-111.39336)">
    <g
       id="g1021"
       transform="matrix(0.02642997,0,0,0.02642997,101.54929,111.39336)">
      <g
         id="g6">
        <g
           id="g4">
          <path
             id="path2"
             d="M 395.57,155.992 305.03,65.264 C 303.546,63.78 301.542,63 299.45,63 H 65.142 C 53.174,63 43.446,72.672 43.446,84.632 l -0.124,397.692 c 0,11.96 9.736,21.676 21.7,21.676 H 376.05 c 11.96,0 21.696,-9.708 21.7,-21.664 l 0.116,-320.796 c 0,-2.088 -0.824,-4.072 -2.296,-5.548 z m -13.576,326.34 c 0,3.276 -2.668,5.924 -5.944,5.924 H 65.022 c -3.28,0 -5.948,-2.624 -5.948,-5.9 L 59.198,84.648 c 0,-3.276 2.664,-5.896 5.944,-5.896 h 231.04 l 85.924,86.076 z"
             inkscape:connector-curvature="0" />
        </g>
      </g>
      <g
         id="g12">
        <g
           id="g10">
          <path
             id="path8"
             d="m 354.454,153.564 h -31.972 c -8.356,0 -15.352,-6.712 -15.352,-15.068 v -67.72 c 0,-4.352 -3.528,-7.876 -7.876,-7.876 -4.348,0 -7.876,3.528 -7.876,7.876 v 67.72 c 0,17.044 14.056,30.816 31.1,30.816 h 31.972 c 4.348,0 7.88,-3.52 7.88,-7.872 0,-4.352 -3.528,-7.876 -7.876,-7.876 z"
             inkscape:connector-curvature="0" />
        </g>
      </g>
      <g
         id="g18">
        <g
           id="g16">
          <path
             id="path14"
             d="M 458.378,93.128 367.838,2.356 C 366.354,0.872 364.35,0 362.262,0 H 127.95 c -11.964,0 -21.64,9.816 -21.64,21.78 v 48.996 c 0,4.352 3.524,7.876 7.876,7.876 4.352,0 7.876,-3.528 7.876,-7.876 V 21.78 c 0,-3.276 2.616,-6.028 5.892,-6.028 h 231.044 l 85.928,86.112 -0.12,317.552 c 0,3.272 -2.664,5.832 -5.94,5.832 H 389.87 c -4.352,0 -7.876,3.528 -7.876,7.876 0,4.348 3.524,7.876 7.876,7.876 h 48.996 c 11.964,0 21.692,-9.628 21.688,-21.588 L 460.678,98.7 c 0,-2.088 -0.832,-4.096 -2.3,-5.572 z"
             inkscape:connector-curvature="0" />
        </g>
      </g>
      <g
         id="g24">
        <g
           id="g22">
          <path
             id="path20"
             d="m 417.27,90.56 h -31.972 c -8.356,0 -15.168,-6.524 -15.168,-14.88 V 7.96 c 0,-4.348 -3.528,-7.876 -7.876,-7.876 -4.348,0 -7.876,3.528 -7.876,7.876 v 67.72 c 0,17.044 13.876,30.632 30.916,30.632 h 31.972 c 4.348,0 7.88,-3.524 7.88,-7.876 0,-4.352 -3.528,-7.876 -7.876,-7.876 z"
             inkscape:connector-curvature="0" />
        </g>
      </g>
      <g
         id="g30">
        <g
           id="g28">
          <path
             id="path26"
             d="M 105.738,192.936 H 86.57 c -4.348,0 -7.876,3.524 -7.876,7.876 0,4.352 3.528,7.876 7.876,7.876 h 19.168 c 4.344,0 7.876,-3.524 7.876,-7.876 0,-4.352 -3.532,-7.876 -7.876,-7.876 z"
             inkscape:connector-curvature="0" />
        </g>
      </g>
      <g
         id="g36">
        <g
           id="g34">
          <path
             id="path32"
             d="M 354.33,192.936 H 141.114 c -4.356,0 -7.876,3.524 -7.876,7.876 0,4.352 3.524,7.876 7.876,7.876 H 354.33 c 4.352,0 7.876,-3.524 7.876,-7.876 0,-4.352 -3.524,-7.876 -7.876,-7.876 z"
             inkscape:connector-curvature="0" />
        </g>
      </g>
      <g
         id="g42">
        <g
           id="g40">
          <path
             id="path38"
             d="m 354.33,232.312 h -59.74 c -4.352,0 -7.876,3.524 -7.876,7.876 0,4.352 3.524,7.876 7.876,7.876 h 59.74 c 4.352,0 7.876,-3.524 7.876,-7.876 0,-4.352 -3.524,-7.876 -7.876,-7.876 z"
             inkscape:connector-curvature="0" />
        </g>
      </g>
      <g
         id="g48">
        <g
           id="g46">
          <path
             id="path44"
             d="M 259.218,232.312 H 86.574 c -4.348,0 -7.876,3.524 -7.876,7.876 0,4.352 3.528,7.876 7.876,7.876 h 172.644 c 4.344,0 7.876,-3.524 7.876,-7.876 0,-4.352 -3.532,-7.876 -7.876,-7.876 z"
             inkscape:connector-curvature="0" />
        </g>
      </g>
      <g
         id="g54">
        <g
           id="g52">
          <path
             id="path50"
             d="M 354.33,271.684 H 86.574 c -4.348,0 -7.876,3.528 -7.876,7.876 0,4.348 3.528,7.876 7.876,7.876 H 354.33 c 4.352,0 7.876,-3.528 7.876,-7.876 0,-4.348 -3.524,-7.876 -7.876,-7.876 z"
             inkscape:connector-curvature="0" />
        </g>
      </g>
      <g
         id="g60">
        <g
           id="g58">
          <path
             id="path56"
             d="M 354.33,389.812 H 86.574 c -4.348,0 -7.876,3.528 -7.876,7.876 0,4.348 3.528,7.876 7.876,7.876 H 354.33 c 4.352,0 7.876,-3.528 7.876,-7.876 0,-4.348 -3.524,-7.876 -7.876,-7.876 z"
             inkscape:connector-curvature="0" />
        </g>
      </g>
      <g
         id="g66">
        <g
           id="g64">
          <path
             id="path62"
             d="M 105.738,311.06 H 86.57 c -4.348,0 -7.876,3.528 -7.876,7.876 0,4.348 3.528,7.876 7.876,7.876 h 19.168 c 4.344,0 7.876,-3.528 7.876,-7.876 0,-4.348 -3.532,-7.876 -7.876,-7.876 z"
             inkscape:connector-curvature="0" />
        </g>
      </g>
      <g
         id="g72">
        <g
           id="g70">
          <path
             id="path68"
             d="M 354.33,311.06 H 141.114 c -4.356,0 -7.876,3.528 -7.876,7.876 0,4.348 3.524,7.876 7.876,7.876 H 354.33 c 4.352,0 7.876,-3.528 7.876,-7.876 0,-4.348 -3.524,-7.876 -7.876,-7.876 z"
             inkscape:connector-curvature="0" />
        </g>
      </g>
      <g
         id="g78">
        <g
           id="g76">
          <path
             id="path74"
             d="m 354.33,350.436 h -59.74 c -4.352,0 -7.876,3.528 -7.876,7.876 0,4.348 3.524,7.876 7.876,7.876 h 59.74 c 4.352,0 7.876,-3.528 7.876,-7.876 0,-4.348 -3.524,-7.876 -7.876,-7.876 z"
             inkscape:connector-curvature="0" />
        </g>
      </g>
      <g
         id="g84">
        <g
           id="g82">
          <path
             id="path80"
             d="M 259.218,350.436 H 86.574 c -4.348,0 -7.876,3.528 -7.876,7.876 0,4.348 3.528,7.876 7.876,7.876 h 172.644 c 4.344,0 7.876,-3.528 7.876,-7.876 0,-4.348 -3.532,-7.876 -7.876,-7.876 z"
             inkscape:connector-curvature="0" />
        </g>
      </g>
      <g
         id="g90">
        <g
           id="g88">
          <path
             id="path86"
             d="M 105.738,429.184 H 86.57 c -4.348,0 -7.876,3.528 -7.876,7.876 0,4.348 3.528,7.876 7.876,7.876 h 19.168 c 4.344,0 7.876,-3.528 7.876,-7.876 0,-4.348 -3.532,-7.876 -7.876,-7.876 z"
             inkscape:connector-curvature="0" />
        </g>
      </g>
      <g
         id="g96">
        <g
           id="g94">
          <path
             id="path92"
             d="M 354.33,429.184 H 141.114 c -4.356,0 -7.876,3.528 -7.876,7.876 0,4.348 3.524,7.876 7.876,7.876 H 354.33 c 4.352,0 7.876,-3.528 7.876,-7.876 0,-4.348 -3.524,-7.876 -7.876,-7.876 z"
             inkscape:connector-curvature="0" />
        </g>
      </g>
      <g
         id="g102">
        <g
           id="g100">
          <path
             id="path98"
             d="m 417.15,129.936 h -46.74 c -4.352,0 -7.876,3.524 -7.876,7.876 0,4.352 3.524,7.876 7.876,7.876 h 46.736 c 4.352,0 7.88,-3.524 7.88,-7.876 0,-4.352 -3.524,-7.876 -7.876,-7.876 z"
             inkscape:connector-curvature="0" />
        </g>
      </g>
      <g
         id="g108">
        <g
           id="g106">
          <path
             id="path104"
             d="M 417.146,169.312 H 389.87 c -4.352,0 -7.876,3.524 -7.876,7.876 0,4.352 3.524,7.876 7.876,7.876 h 27.276 c 4.352,0 7.876,-3.524 7.876,-7.876 0,-4.352 -3.524,-7.876 -7.876,-7.876 z"
             inkscape:connector-curvature="0" />
        </g>
      </g>
      <g
         id="g114">
        <g
           id="g112">
          <path
             id="path110"
             d="M 417.146,208.684 H 389.87 c -4.352,0 -7.876,3.524 -7.876,7.876 0,4.352 3.524,7.876 7.876,7.876 h 27.276 c 4.352,0 7.876,-3.524 7.876,-7.876 0,-4.352 -3.524,-7.876 -7.876,-7.876 z"
             inkscape:connector-curvature="0" />
        </g>
      </g>
      <g
         id="g120">
        <g
           id="g118">
          <path
             id="path116"
             d="m 417.146,326.812 h -24.864 c -4.344,0 -7.876,3.528 -7.876,7.876 0,4.348 3.532,7.876 7.876,7.876 h 24.864 c 4.352,0 7.876,-3.528 7.876,-7.876 0,-4.348 -3.524,-7.876 -7.876,-7.876 z"
             inkscape:connector-curvature="0" />
        </g>
      </g>
      <g
         id="g126">
        <g
           id="g124">
          <path
             id="path122"
             d="M 417.146,248.06 H 389.87 c -4.352,0 -7.876,3.528 -7.876,7.876 0,4.348 3.524,7.876 7.876,7.876 h 27.276 c 4.352,0 7.876,-3.528 7.876,-7.876 0,-4.352 -3.524,-7.876 -7.876,-7.876 z"
             inkscape:connector-curvature="0" />
        </g>
      </g>
      <g
         id="g132">
        <g
           id="g130">
          <path
             id="path128"
             d="M 417.146,287.436 H 389.87 c -4.352,0 -7.876,3.528 -7.876,7.876 0,4.348 3.524,7.876 7.876,7.876 h 27.276 c 4.352,0 7.876,-3.528 7.876,-7.876 0,-4.348 -3.524,-7.876 -7.876,-7.876 z"
             inkscape:connector-curvature="0" />
        </g>
      </g>
      <g
         id="g138">
        <g
           id="g136">
          <path
             id="path134"
             d="M 417.146,366.184 H 389.87 c -4.352,0 -7.876,3.528 -7.876,7.876 0,4.348 3.524,7.876 7.876,7.876 h 27.276 c 4.352,0 7.876,-3.528 7.876,-7.876 0,-4.348 -3.524,-7.876 -7.876,-7.876 z"
             inkscape:connector-curvature="0" />
        </g>
      </g>
    </g>
  </g>
</svg>
