<?xml version="1.0" encoding="UTF-8" standalone="no"?>
<svg
   xmlns:dc="http://purl.org/dc/elements/1.1/"
   xmlns:cc="http://creativecommons.org/ns#"
   xmlns:rdf="http://www.w3.org/1999/02/22-rdf-syntax-ns#"
   xmlns:svg="http://www.w3.org/2000/svg"
   xmlns="http://www.w3.org/2000/svg"
   xmlns:sodipodi="http://sodipodi.sourceforge.net/DTD/sodipodi-0.dtd"
   xmlns:inkscape="http://www.inkscape.org/namespaces/inkscape"
   width="190.00002"
   height="197.75722"
   viewBox="0 0 190.00001 197.75722"
   version="1.1"
   id="svg50"
   sodipodi:docname="loginOkey.svg"
   inkscape:version="0.92.4 (5da689c313, 2019-01-14)">
  <metadata
     id="metadata56">
    <rdf:RDF>
      <cc:Work
         rdf:about="">
        <dc:format>image/svg+xml</dc:format>
        <dc:type
           rdf:resource="http://purl.org/dc/dcmitype/StillImage" />
        <dc:title></dc:title>
      </cc:Work>
    </rdf:RDF>
  </metadata>
  <defs
     id="defs54" />
  <sodipodi:namedview
     pagecolor="#ffffff"
     bordercolor="#666666"
     borderopacity="1"
     objecttolerance="10"
     gridtolerance="10"
     guidetolerance="10"
     inkscape:pageopacity="0"
     inkscape:pageshadow="2"
     inkscape:window-width="3440"
     inkscape:window-height="1377"
     id="namedview52"
     showgrid="false"
     showborder="false"
     fit-margin-top="0"
     fit-margin-left="0"
     fit-margin-right="0"
     fit-margin-bottom="0"
     inkscape:zoom="1.2536591"
     inkscape:cx="204.28909"
     inkscape:cy="222.45463"
     inkscape:window-x="-8"
     inkscape:window-y="-8"
     inkscape:window-maximized="1"
     inkscape:current-layer="svg50" />
  <g
     id="g1537">
    <polygon
       transform="matrix(0.37141102,0,0,0.37141102,0,5.3197837e-6)"
       id="polygon2"
       points="282.05103,429.66839 290.18103,383.41839 290.18103,383.40838 291.401,376.44842 452.10101,376.44842 452.31103,378.96838 454.49103,405.20843 454.48102,405.44842 466.49103,532.44842 378.85101,532.44842 367.49103,454.44842 362.49103,530.44842 272.49103,529.44842 "
       style="fill:#2f2e41" />
    <path
       id="path4"
       d="m 82.781147,177.84298 c 3.447359,0.62806 7.042023,-3.25426 8.029007,-8.67162 0.432051,-2.37137 0.29259,-4.64367 -0.289771,-6.50197 l 0.528603,-3.12282 8.870536,-42.01001 c 0,0 16.334768,-32.674968 16.334318,-38.347551 -3.7e-4,-5.672512 -4.72517,-8.454362 -4.72517,-8.454362 l -6.3936,0.05978 -20.049749,48.969293 -3.610921,36.18651 -0.584189,4.96469 c -1.200251,1.53354 -2.132096,3.61065 -2.563969,5.98202 -0.987021,5.4173 1.007546,10.31798 4.454905,10.94604 z"
       inkscape:connector-curvature="0"
       style="fill:#ffb6b6;stroke-width:0.37141103" />
    <polygon
       transform="matrix(0.37141102,0,0,0.37141102,0,5.3197837e-6)"
       id="polygon6"
       points="326.49103,151.47992 397.99103,135.94842 381.99103,98.94842 329.99103,107.94842 "
       style="fill:#ffb6b6" />
    <polygon
       transform="matrix(0.37141102,0,0,0.37141102,0,5.3197837e-6)"
       id="polygon8"
       points="326.49103,151.47992 397.99103,135.94842 381.99103,98.94842 329.99103,107.94842 "
       style="opacity:0.1" />
    <path
       id="path10"
       d="m 189.78777,79.091388 c 0,0 -13.74221,-25.627361 -16.34209,-28.227238 -1.15739,-1.157394 -2.97673,-1.173491 -4.6401,-0.836172 l -19.1302,-6.592048 -6.4841,-3.643245 -0.42727,6.931269 -21.28758,3.820883 c 0.11824,-4.226977 0.71453,-5.834763 0.71453,-5.834763 l -7.79963,9.125368 -15.227852,7.428221 0.0084,0.06687 c -1.117497,0.390089 -2.176962,1.05756 -2.97963,2.161594 -2.971288,4.085521 -11.14233,53.854603 -11.14233,53.854603 l 17.456312,3.71411 2.37572,-14.90827 1.7098,13.42262 1.29994,25.07025 c 0,0 23.77031,20.4276 35.28405,12.99938 11.51374,-7.42822 25.62736,-7.05681 25.62736,-7.05681 l 0.35219,-11.62069 c 0.25062,-0.40061 0.39063,-0.63587 0.39063,-0.63587 L 169.17447,97.110676 V 86.142128 c 2.82947,3.941982 6.24398,7.332059 10.2138,8.919941 12.99939,5.199751 10.39951,-15.970674 10.39951,-15.970674 z"
       inkscape:connector-curvature="0"
       style="fill:#e6e6e6;stroke-width:0.37141103" />
    <circle
       id="circle12"
       r="17.76774"
       cy="24.743374"
       cx="130.2003"
       style="fill:#ffb6b6;stroke-width:0.37141103" />
    <path
       id="path14"
       d="m 142.94673,29.764691 c 0,0 1.54502,-5.407573 5.02131,-5.021317 3.4763,0.386256 4.24881,-2.703787 3.4763,-4.248808 -0.77251,-1.545022 -2.31753,-9.270126 -2.31753,-9.270126 0,0 0.77251,-5.4075736 -3.86255,-6.1800825 -4.63506,-0.7725089 -6.18008,-1.5450215 -6.9526,-3.0900431 -0.77251,-1.54502156 -12.36016,-3.0900431 -16.22271,-0.7725089 -3.86256,2.3175305 -6.9526,6.764026 -9.65638,8.0170777 -2.70379,1.2530478 -5.02132,3.5705788 -3.4763,7.4331308 1.54502,3.862552 3.78574,11.416877 3.78574,11.416877 0,0 3.93937,-1.374243 4.71187,0.943288 0.77251,2.31753 -2.31753,-0.772509 1.54503,-6.952595 3.86255,-6.180083 3.86255,-12.3601655 10.04263,-10.042635 6.18008,2.31753 13.13268,1.545022 12.36017,6.180082 -0.77251,4.635061 1.54502,11.587657 1.54502,11.587657 z"
       inkscape:connector-curvature="0"
       style="fill:#2f2e41;stroke-width:0.37141103" />
    <path
       d="M 141.86024,170.62037 H 6.9205832 C 3.1044984,170.62037 0,167.51559 0,163.69978 V 92.020057 C 0,88.204254 3.1044984,85.099474 6.9205832,85.099474 H 141.86024 c 3.81608,0 6.92058,3.10478 6.92058,6.920583 v 71.679723 c 0,3.81581 -3.1045,6.92059 -6.92058,6.92059 z"
       id="path16"
       inkscape:connector-curvature="0"
       style="fill:#ffffff;stroke-width:0.37141103" />
    <path
       d="M 141.86024,170.62037 H 6.9205832 C 3.1044984,170.62037 0,167.51559 0,163.69978 V 92.020057 C 0,88.204254 3.1044984,85.099474 6.9205832,85.099474 H 141.86024 c 3.81608,0 6.92058,3.10478 6.92058,6.920583 v 71.679723 c 0,3.81581 -3.1045,6.92059 -6.92058,6.92059 z M 6.9205832,86.25516 c -3.1787063,0 -5.764897,2.58619 -5.764897,5.764897 v 71.679723 c 0,3.17871 2.5861907,5.7649 5.764897,5.7649 H 141.86024 c 3.1787,0 5.7649,-2.58619 5.7649,-5.7649 V 92.020057 c 0,-3.178707 -2.5862,-5.764897 -5.7649,-5.764897 z"
       id="path18"
       inkscape:connector-curvature="0"
       style="fill:#3f3d56;stroke-width:0.37141103" />
    <circle
       cx="131.44551"
       cy="92.0336"
       r="1.7335312"
       id="circle20"
       style="fill:#3f3d56;stroke-width:0.37141103" />
    <circle
       cx="136.06825"
       cy="92.0336"
       r="1.7335312"
       id="circle22"
       style="fill:#3f3d56;stroke-width:0.37141103" />
    <circle
       cx="140.69101"
       cy="92.0336"
       r="1.7335312"
       id="circle24"
       style="fill:#3f3d56;stroke-width:0.37141103" />
    <path
       d="m 9.8233461,120.05903 c -0.4779614,0 -0.8667656,0.3888 -0.8667656,0.86676 0,0.23306 0.090008,0.44862 0.2533691,0.60775 0.1647765,0.16873 0.380622,0.25902 0.6133965,0.25902 H 139.53532 c 0.47796,0 0.86676,-0.38881 0.86676,-0.86677 0,-0.23306 -0.09,-0.44862 -0.25337,-0.60775 -0.16477,-0.16872 -0.38062,-0.25901 -0.61339,-0.25901 z"
       id="path26"
       inkscape:connector-curvature="0"
       style="fill:#e6e6e6;stroke-width:0.37141103" />
    <path
       d="m 123.35569,119.77011 v 2.31137 H 9.8233461 c -0.3178053,0 -0.6067296,-0.12714 -0.8147458,-0.34094 -0.2138362,-0.20802 -0.3409442,-0.49694 -0.3409442,-0.81475 0,-0.63565 0.520072,-1.15568 1.1556863,-1.15568 z"
       id="path28"
       inkscape:connector-curvature="0"
       style="fill:#8dc4fa;fill-opacity:1;stroke-width:0.37141103" />
    <path
       d="m 138.09071,115.43627 h -11.55688 c -1.27447,0 -2.31137,-1.03662 -2.31137,-2.31137 0,-1.27476 1.0369,-2.31138 2.31137,-2.31138 h 11.55688 c 1.27447,0 2.31138,1.03662 2.31138,2.31138 0,1.27475 -1.03691,2.31137 -2.31138,2.31137 z"
       id="path30"
       inkscape:connector-curvature="0"
       style="fill:#e6e6e6;stroke-width:0.37141103" />
    <path
       d="m 9.8233461,146.062 c -0.4779614,0 -0.8667656,0.38881 -0.8667656,0.86677 0,0.23305 0.090008,0.44862 0.2533691,0.60775 0.1647765,0.16872 0.380622,0.25901 0.6133965,0.25901 H 139.53532 c 0.47796,0 0.86676,-0.3888 0.86676,-0.86676 0,-0.23306 -0.09,-0.44862 -0.25337,-0.60775 -0.16477,-0.16873 -0.38062,-0.25902 -0.61339,-0.25902 z"
       id="path34"
       inkscape:connector-curvature="0"
       style="fill:#e6e6e6;stroke-width:0.37141103" />
    <path
       d="m 78.861713,145.77308 v 2.31137 H 9.8233461 c -0.3178053,0 -0.6067296,-0.12714 -0.8147458,-0.34094 -0.2138362,-0.20802 -0.3409442,-0.49694 -0.3409442,-0.81475 0,-0.63564 0.520072,-1.15568 1.1556863,-1.15568 z"
       id="path36"
       inkscape:connector-curvature="0"
       style="fill:#8dc4fa;fill-opacity:1;stroke-width:0.37141103" />
    <path
       d="m 138.09071,141.43925 h -11.55688 c -1.27447,0 -2.31137,-1.03662 -2.31137,-2.31138 0,-1.27475 1.0369,-2.31137 2.31137,-2.31137 h 11.55688 c 1.27447,0 2.31138,1.03662 2.31138,2.31137 0,1.27476 -1.03691,2.31138 -2.31138,2.31138 z"
       id="path38"
       inkscape:connector-curvature="0"
       style="fill:#e6e6e6;stroke-width:0.37141103" />
    <path
       id="path48"
       d="m 183.30555,72.860377 -18.03098,-8.625423 c 0,0 -0.72419,-5.773101 -4.10558,-7.832274 -0.57487,-1.371436 -1.23626,-2.878094 -1.83699,-4.071898 -1.48565,-2.952268 0.74282,-8.523434 -1.11424,-8.523434 -1.85705,0 -4.60223,5.859169 -4.45693,7.428221 0.11154,1.204456 1.10702,3.307311 1.31268,5.148091 -2.26453,0.854056 -4.09133,2.317916 -5.29247,3.483475 -1.03945,1.008659 -1.42567,2.513542 -1.01944,3.903801 1.17718,4.028706 4.11952,12.349167 8.34193,12.349167 5.57116,0 7.05681,-1.114233 7.05681,-1.114233 0,0 11.51374,14.48503 20.05619,15.599263 8.54245,1.114233 -0.91098,-17.744759 -0.91098,-17.744759 z"
       inkscape:connector-curvature="0"
       style="fill:#ffb6b6;stroke-width:0.37141103" />
    <path
       inkscape:export-ydpi="99.600212"
       inkscape:export-xdpi="99.600212"
       inkscape:export-filename="C:\Users\joan6\Desktop\Proyectos\DOMO\domo-back\keycloak_themes\custom\login\resources\img\logoavante_little.png"
       sodipodi:nodetypes="cccccccccc"
       inkscape:connector-curvature="0"
       id="path826"
       d="m 11.141979,95.934453 h 4.49428 l 3.58354,7.186897 11.04546,-10.460607 -10.2758,19.837607 -1.60997,-2.89794 11.61627,-16.554675 -13.75564,15.421235 0.50486,-1.84127 z"
       style="fill:#000000;fill-opacity:1;stroke:#000000;stroke-width:0.02771804px;stroke-linecap:butt;stroke-linejoin:miter;stroke-opacity:1" />
  </g>
</svg>
